<svg width="19" height="19" viewBox="0 0 19 19" fill="none" xmlns="http://www.w3.org/2000/svg">
<g clip-path="url(#clip0_1471_1516)">
<path d="M7.70687 14.6444C7.56437 14.6444 7.42188 14.5919 7.30937 14.4794L2.75688 9.92688C2.53938 9.70938 2.53938 9.34939 2.75688 9.13189L7.30937 4.57938C7.52688 4.36188 7.88688 4.36188 8.10438 4.57938C8.32188 4.79688 8.32188 5.15688 8.10438 5.37438L3.94937 9.52938L8.10438 13.6844C8.32188 13.9019 8.32188 14.2619 8.10438 14.4794C7.99938 14.5919 7.84937 14.6444 7.70687 14.6444Z" fill="#181717"/>
<path d="M15.9042 10.0918H3.28174C2.97424 10.0918 2.71924 9.8368 2.71924 9.5293C2.71924 9.2218 2.97424 8.9668 3.28174 8.9668H15.9042C16.2117 8.9668 16.4667 9.2218 16.4667 9.5293C16.4667 9.8368 16.2117 10.0918 15.9042 10.0918Z" fill="#181717"/>
</g>
<defs>
<clipPath id="clip0_1471_1516">
<rect width="18" height="18" fill="white" transform="translate(0.529297 0.529297)"/>
</clipPath>
</defs>
</svg>
