<svg width="245" height="72" viewBox="0 0 245 72" fill="none" xmlns="http://www.w3.org/2000/svg">
<g filter="url(#filter0_d_1505_1930)">
<path d="M5 6.75925C5 5.78764 5.78764 5 6.75925 5H234C237.314 5 240 7.68629 240 11V61C240 64.3137 237.314 67 234 67H6.75925C5.78764 67 5 66.2124 5 65.2408V65.2408C5 64.6937 5.25453 64.1777 5.68866 63.8448L6.12833 63.5076C7.63276 62.3538 7.63276 60.0869 6.12833 58.9331L5.83386 58.7073C5.30819 58.3041 5 57.6794 5 57.017V57.017C5 56.3545 5.3082 55.7298 5.83386 55.3266L6.12833 55.1008C7.63276 53.9471 7.63276 51.6801 6.12833 50.5263L5.83387 50.3005C5.3082 49.8974 5 49.2726 5 48.6102V48.6102C5 47.9477 5.3082 47.323 5.83387 46.9198L6.12833 46.694C7.63276 45.5403 7.63276 43.2733 6.12833 42.1196L5.83387 41.8937C5.3082 41.4906 5 40.8658 5 40.2034V40.2034C5 39.5409 5.3082 38.9162 5.83387 38.513L6.12833 38.2872C7.63276 37.1335 7.63276 34.8665 6.12833 33.7128L5.83387 33.4869C5.3082 33.0838 5 32.4591 5 31.7966V31.7966C5 31.1342 5.3082 30.5094 5.83387 30.1063L6.12833 29.8805C7.63276 28.7267 7.63276 26.4597 6.12833 25.306L5.83387 25.0802C5.3082 24.677 5 24.0523 5 23.3898V23.3898C5 22.7274 5.3082 22.1026 5.83387 21.6995L6.12833 21.4737C7.63276 20.3199 7.63276 18.053 6.12833 16.8992L5.83387 16.6734C5.3082 16.2703 5 15.6455 5 14.9831V14.9831C5 14.3206 5.3082 13.6958 5.83387 13.2927L6.12833 13.0669C7.63276 11.9132 7.63276 9.64617 6.12833 8.49243L5.68867 8.15525C5.25453 7.82232 5 7.30636 5 6.75925V6.75925Z" fill="url(#paint0_linear_1505_1930)"/>
<path d="M5 6.75925C5 5.78764 5.78764 5 6.75925 5H234C237.314 5 240 7.68629 240 11V61C240 64.3137 237.314 67 234 67H6.75925C5.78764 67 5 66.2124 5 65.2408V65.2408C5 64.6937 5.25453 64.1777 5.68866 63.8448L6.12833 63.5076C7.63276 62.3538 7.63276 60.0869 6.12833 58.9331L5.83386 58.7073C5.30819 58.3041 5 57.6794 5 57.017V57.017C5 56.3545 5.3082 55.7298 5.83386 55.3266L6.12833 55.1008C7.63276 53.9471 7.63276 51.6801 6.12833 50.5263L5.83387 50.3005C5.3082 49.8974 5 49.2726 5 48.6102V48.6102C5 47.9477 5.3082 47.323 5.83387 46.9198L6.12833 46.694C7.63276 45.5403 7.63276 43.2733 6.12833 42.1196L5.83387 41.8937C5.3082 41.4906 5 40.8658 5 40.2034V40.2034C5 39.5409 5.3082 38.9162 5.83387 38.513L6.12833 38.2872C7.63276 37.1335 7.63276 34.8665 6.12833 33.7128L5.83387 33.4869C5.3082 33.0838 5 32.4591 5 31.7966V31.7966C5 31.1342 5.3082 30.5094 5.83387 30.1063L6.12833 29.8805C7.63276 28.7267 7.63276 26.4597 6.12833 25.306L5.83387 25.0802C5.3082 24.677 5 24.0523 5 23.3898V23.3898C5 22.7274 5.3082 22.1026 5.83387 21.6995L6.12833 21.4737C7.63276 20.3199 7.63276 18.053 6.12833 16.8992L5.83387 16.6734C5.3082 16.2703 5 15.6455 5 14.9831V14.9831C5 14.3206 5.3082 13.6958 5.83387 13.2927L6.12833 13.0669C7.63276 11.9132 7.63276 9.64617 6.12833 8.49243L5.68867 8.15525C5.25453 7.82232 5 7.30636 5 6.75925V6.75925Z" fill="white"/>
<path d="M6.75925 5.5H234C237.038 5.5 239.5 7.96243 239.5 11V61C239.5 64.0376 237.038 66.5 234 66.5H6.75925C6.06379 66.5 5.5 65.9362 5.5 65.2408C5.5 64.8491 5.68219 64.4798 5.99294 64.2415L6.4326 63.9043C8.198 62.5505 8.19801 59.8902 6.43261 58.5364L6.13813 58.3105C5.73585 58.002 5.5 57.5239 5.5 57.017C5.5 56.51 5.73586 56.0319 6.13814 55.7234L6.4326 55.4976C8.198 54.1437 8.198 51.4834 6.4326 50.1296L6.13814 49.9038C5.73586 49.5952 5.5 49.1171 5.5 48.6102C5.5 48.1032 5.73586 47.6251 6.13814 47.3166L6.4326 47.0908C8.198 45.7369 8.198 43.0767 6.4326 41.7228L6.13814 41.497C5.73586 41.1885 5.5 40.7104 5.5 40.2034C5.5 39.6964 5.73586 39.2183 6.13814 38.9098L6.4326 38.684C8.198 37.3301 8.198 34.6699 6.4326 33.316L6.13814 33.0902C5.73586 32.7817 5.5 32.3036 5.5 31.7966C5.5 31.2896 5.73586 30.8115 6.13814 30.503L6.4326 30.2772C8.198 28.9233 8.198 26.2631 6.4326 24.9092L6.13814 24.6834C5.73586 24.3749 5.5 23.8968 5.5 23.3898C5.5 22.8829 5.73586 22.4048 6.13814 22.0963L6.4326 21.8704C8.198 20.5166 8.198 17.8563 6.4326 16.5024L6.13814 16.2766C5.73586 15.9681 5.5 15.49 5.5 14.9831C5.5 14.4761 5.73586 13.998 6.13814 13.6895L6.4326 13.4637C8.198 12.1098 8.198 9.44955 6.4326 8.09567L5.99294 7.7585C5.68219 7.52018 5.5 7.15086 5.5 6.75925C5.5 6.06379 6.06379 5.5 6.75925 5.5Z" stroke="#5FAF3A" stroke-opacity="0.24"/>
</g>
<defs>
<filter id="filter0_d_1505_1930" x="0" y="0" width="245" height="72" filterUnits="userSpaceOnUse" color-interpolation-filters="sRGB">
<feFlood flood-opacity="0" result="BackgroundImageFix"/>
<feColorMatrix in="SourceAlpha" type="matrix" values="0 0 0 0 0 0 0 0 0 0 0 0 0 0 0 0 0 0 127 0" result="hardAlpha"/>
<feOffset/>
<feGaussianBlur stdDeviation="2.5"/>
<feColorMatrix type="matrix" values="0 0 0 0 0.521569 0 0 0 0 0.521569 0 0 0 0 0.521569 0 0 0 0.15 0"/>
<feBlend mode="normal" in2="BackgroundImageFix" result="effect1_dropShadow_1505_1930"/>
<feBlend mode="normal" in="SourceGraphic" in2="effect1_dropShadow_1505_1930" result="shape"/>
</filter>
<linearGradient id="paint0_linear_1505_1930" x1="10.3248" y1="5" x2="237.624" y2="67.8902" gradientUnits="userSpaceOnUse">
<stop offset="0.0476036" stop-color="#FFF5DD"/>
<stop offset="1" stop-color="#E8DBAE"/>
</linearGradient>
</defs>
</svg>
