<svg width="12" height="12" viewBox="0 0 12 12" fill="none" xmlns="http://www.w3.org/2000/svg">
<g id="history (1) 1" clip-path="url(#clip0_41_693)">
<g id="Ellipse 505">
<mask id="path-1-inside-1_41_693" fill="white">
<path d="M11.9917 5.8142C11.9917 6.96414 11.6507 8.08826 11.0118 9.0444C10.3729 10.0005 9.46489 10.7458 8.40248 11.1858C7.34007 11.6259 6.17103 11.741 5.04319 11.5167C3.91534 11.2923 2.87935 10.7386 2.06622 9.92546C1.25309 9.11233 0.699342 8.07634 0.474999 6.94849C0.250657 5.82065 0.365798 4.65161 0.805861 3.5892C1.24592 2.5268 1.99114 1.61874 2.94728 0.979869C3.90343 0.340997 5.02754 -1.37129e-08 6.17748 0V5.8142H11.9917Z"/>
</mask>
<path d="M11.9917 5.8142C11.9917 6.96414 11.6507 8.08826 11.0118 9.0444C10.3729 10.0005 9.46489 10.7458 8.40248 11.1858C7.34007 11.6259 6.17103 11.741 5.04319 11.5167C3.91534 11.2923 2.87935 10.7386 2.06622 9.92546C1.25309 9.11233 0.699342 8.07634 0.474999 6.94849C0.250657 5.82065 0.365798 4.65161 0.805861 3.5892C1.24592 2.5268 1.99114 1.61874 2.94728 0.979869C3.90343 0.340997 5.02754 -1.37129e-08 6.17748 0V5.8142H11.9917Z" stroke="#EB5757" stroke-width="2.32727" mask="url(#path-1-inside-1_41_693)"/>
</g>
<circle id="Ellipse 506" cx="6.1818" cy="5.78772" r="4.65455" fill="white"/>
<path id="Vector" d="M9.1833 5.74047H6.41951V2.72123C6.41951 2.5013 6.24126 2.323 6.02128 2.323C5.80135 2.323 5.62305 2.5013 5.62305 2.72123V6.13871C5.62305 6.35864 5.80135 6.53694 6.02128 6.53694H9.1833C9.40329 6.53694 9.58153 6.35864 9.58153 6.13871C9.58153 5.91877 9.40323 5.74047 9.1833 5.74047Z" fill="#EB5757"/>
</g>
<defs>
<clipPath id="clip0_41_693">
<rect width="12" height="12" fill="white"/>
</clipPath>
</defs>
</svg>
