<svg width="24" height="24" viewBox="0 0 24 24" fill="none" xmlns="http://www.w3.org/2000/svg">
<g id="ic_close">
<rect id="bounds" opacity="0.01" width="24" height="24" transform="matrix(-1 0 0 1 24 0)" fill="white"/>
<path id="Shape" d="M12 10.5133L6.79418 5.30743C6.38484 4.89809 5.72305 4.89622 5.30964 5.30964C4.89908 5.72019 4.89874 6.38549 5.30743 6.79418L10.5133 12L5.30743 17.2058C4.89809 17.6152 4.89622 18.2769 5.30964 18.6904C5.72019 19.1009 6.38549 19.1013 6.79418 18.6926L12 13.4867L17.2058 18.6926C17.6152 19.1019 18.2769 19.1038 18.6904 18.6904C19.1009 18.2798 19.1013 17.6145 18.6926 17.2058L13.4867 12L18.6926 6.79418C19.1019 6.38484 19.1038 5.72305 18.6904 5.30964C18.2798 4.89908 17.6145 4.89874 17.2058 5.30743L12 10.5133Z" fill="white"/>
</g>
</svg>
