<svg width="20" height="20" viewBox="0 0 20 20" fill="none" xmlns="http://www.w3.org/2000/svg">
<g id="Path">
<mask id="path-1-inside-1_41_1498" fill="white">
<path fill-rule="evenodd" clip-rule="evenodd" d="M9.58333 19.4762C11.236 19.4762 12.8292 19.0565 14.2403 18.2704L18.2991 18.6086L17.9608 14.5499C18.7469 13.1388 19.1667 11.5456 19.1667 9.8929C19.1667 4.60017 14.8761 0.30957 9.58333 0.30957C4.2906 0.30957 0 4.60017 0 9.8929C0 15.1856 4.2906 19.4762 9.58333 19.4762ZM13.5269 16.4688L13.792 16.3094L16.2009 16.5102L16.0002 14.1012L16.1595 13.8361C16.8696 12.6549 17.25 11.3028 17.25 9.89258C17.25 5.65839 13.8175 2.22591 9.58334 2.22591C5.34916 2.22591 1.91668 5.65839 1.91668 9.89258C1.91668 14.1268 5.34916 17.5592 9.58334 17.5592C10.9936 17.5592 12.3457 17.1788 13.5269 16.4688Z"/>
</mask>
<path fill-rule="evenodd" clip-rule="evenodd" d="M9.58333 19.4762C11.236 19.4762 12.8292 19.0565 14.2403 18.2704L18.2991 18.6086L17.9608 14.5499C18.7469 13.1388 19.1667 11.5456 19.1667 9.8929C19.1667 4.60017 14.8761 0.30957 9.58333 0.30957C4.2906 0.30957 0 4.60017 0 9.8929C0 15.1856 4.2906 19.4762 9.58333 19.4762ZM13.5269 16.4688L13.792 16.3094L16.2009 16.5102L16.0002 14.1012L16.1595 13.8361C16.8696 12.6549 17.25 11.3028 17.25 9.89258C17.25 5.65839 13.8175 2.22591 9.58334 2.22591C5.34916 2.22591 1.91668 5.65839 1.91668 9.89258C1.91668 14.1268 5.34916 17.5592 9.58334 17.5592C10.9936 17.5592 12.3457 17.1788 13.5269 16.4688Z" fill="#009FE0"/>
<path d="M14.2403 18.2704L14.2653 17.9715L14.1742 17.9639L14.0943 18.0083L14.2403 18.2704ZM18.2991 18.6086L18.2742 18.9076L18.6275 18.9371L18.598 18.5837L18.2991 18.6086ZM17.9608 14.5499L17.6988 14.4039L17.6543 14.4838L17.6619 14.5748L17.9608 14.5499ZM13.792 16.3094L13.8169 16.0105L13.7204 16.0024L13.6374 16.0523L13.792 16.3094ZM13.5269 16.4688L13.6814 16.7259H13.6814L13.5269 16.4688ZM16.2009 16.5102L16.176 16.8091L16.5293 16.8386L16.4999 16.4853L16.2009 16.5102ZM16.0002 14.1012L15.7431 13.9466L15.6932 14.0296L15.7012 14.1261L16.0002 14.1012ZM16.1595 13.8361L16.4167 13.9907V13.9907L16.1595 13.8361ZM14.0943 18.0083C12.7278 18.7696 11.1848 19.1762 9.58333 19.1762V19.7762C11.2873 19.7762 12.9307 19.3434 14.3863 18.5325L14.0943 18.0083ZM18.324 18.3097L14.2653 17.9715L14.2154 18.5694L18.2742 18.9076L18.324 18.3097ZM17.6619 14.5748L18.0001 18.6336L18.598 18.5837L18.2598 14.525L17.6619 14.5748ZM18.8667 9.8929C18.8667 11.4944 18.46 13.0373 17.6988 14.4039L18.2229 14.6959C19.0338 13.2403 19.4667 11.5968 19.4667 9.8929H18.8667ZM9.58333 0.60957C14.7104 0.60957 18.8667 4.76586 18.8667 9.8929H19.4667C19.4667 4.43449 15.0417 0.0095703 9.58333 0.0095703V0.60957ZM0.3 9.8929C0.3 4.76586 4.45629 0.60957 9.58333 0.60957V0.0095703C4.12492 0.0095703 -0.3 4.43449 -0.3 9.8929H0.3ZM9.58333 19.1762C4.45629 19.1762 0.3 15.0199 0.3 9.8929H-0.3C-0.3 15.3513 4.12492 19.7762 9.58333 19.7762V19.1762ZM13.6374 16.0523L13.3723 16.2116L13.6814 16.7259L13.9465 16.5665L13.6374 16.0523ZM16.2258 16.2112L13.8169 16.0105L13.767 16.6084L16.176 16.8091L16.2258 16.2112ZM15.7012 14.1261L15.902 16.5351L16.4999 16.4853L16.2991 14.0763L15.7012 14.1261ZM15.9024 13.6815L15.7431 13.9466L16.2573 14.2558L16.4167 13.9907L15.9024 13.6815ZM16.95 9.89258C16.95 11.2482 16.5845 12.5469 15.9024 13.6815L16.4167 13.9907C17.1547 12.7629 17.55 11.3574 17.55 9.89258H16.95ZM9.58334 2.52591C13.6518 2.52591 16.95 5.82408 16.95 9.89258H17.55C17.55 5.49271 13.9832 1.92591 9.58334 1.92591V2.52591ZM2.21668 9.89258C2.21668 5.82408 5.51485 2.52591 9.58334 2.52591V1.92591C5.18347 1.92591 1.61668 5.49271 1.61668 9.89258H2.21668ZM9.58334 17.2592C5.51485 17.2592 2.21668 13.9611 2.21668 9.89258H1.61668C1.61668 14.2924 5.18347 17.8592 9.58334 17.8592V17.2592ZM13.3723 16.2116C12.2377 16.8937 10.939 17.2592 9.58334 17.2592V17.8592C11.0481 17.8592 12.4537 17.4639 13.6814 16.7259L13.3723 16.2116Z" fill="white" mask="url(#path-1-inside-1_41_1498)"/>
</g>
</svg>
