<svg width="24" height="24" viewBox="0 0 24 24" fill="none" xmlns="http://www.w3.org/2000/svg">
<g id="message-dots-circle">
<path id="Icon" d="M7.36258 12H7.37239M11.7801 12H11.7899M16.1977 12H16.2075M11.7801 21C16.6596 21 20.6152 16.9706 20.6152 12C20.6152 7.02944 16.6596 3 11.7801 3C6.90064 3 2.94504 7.02944 2.94504 12C2.94504 13.1971 3.17449 14.3397 3.59104 15.3845C3.67076 15.5845 3.71063 15.6845 3.72841 15.7653C3.74581 15.8443 3.75217 15.9028 3.75218 15.9839C3.75219 16.0667 3.73743 16.1569 3.70791 16.3374L3.12579 19.8952C3.06483 20.2678 3.03435 20.4541 3.09107 20.5888C3.14071 20.7067 3.23295 20.8007 3.34869 20.8512C3.48093 20.909 3.6638 20.878 4.02955 20.8159L7.52225 20.2229C7.69938 20.1928 7.78794 20.1778 7.86925 20.1778C7.94879 20.1778 8.00622 20.1843 8.08383 20.202C8.16317 20.2201 8.26132 20.2607 8.45763 20.3419C9.48329 20.7663 10.6049 21 11.7801 21ZM7.85341 12C7.85341 12.2761 7.63366 12.5 7.36258 12.5C7.09149 12.5 6.87174 12.2761 6.87174 12C6.87174 11.7239 7.09149 11.5 7.36258 11.5C7.63366 11.5 7.85341 11.7239 7.85341 12ZM12.271 12C12.271 12.2761 12.0512 12.5 11.7801 12.5C11.509 12.5 11.2893 12.2761 11.2893 12C11.2893 11.7239 11.509 11.5 11.7801 11.5C12.0512 11.5 12.271 11.7239 12.271 12ZM16.6885 12C16.6885 12.2761 16.4687 12.5 16.1977 12.5C15.9266 12.5 15.7068 12.2761 15.7068 12C15.7068 11.7239 15.9266 11.5 16.1977 11.5C16.4687 11.5 16.6885 11.7239 16.6885 12Z" stroke="#F06292" stroke-linecap="round" stroke-linejoin="round"/>
</g>
</svg>
