<svg width="20" height="14" viewBox="0 0 20 14" fill="none" xmlns="http://www.w3.org/2000/svg">
<path d="M4.2711 11.5048H5.79888C6.08178 11.5048 6.28083 11.2349 6.28083 10.9435C6.28083 10.6521 6.08178 10.3822 5.79888 10.3822H4.2711C3.9882 10.3822 3.78916 10.6521 3.78916 10.9435C3.78916 11.2349 3.9882 11.5048 4.2711 11.5048Z" fill="black" stroke="black" stroke-width="0.2"/>
<path d="M19.2668 7.26048L19.2656 7.26802L18.6858 11.0434L18.6858 11.0434C18.6469 11.2967 18.4584 11.5046 18.2119 11.5046H17.257C16.9741 11.5046 16.7751 11.2347 16.7751 10.9433C16.7751 10.6519 16.9741 10.382 17.257 10.382H17.8092L18.3097 7.1605C18.2993 5.50642 17.1308 4.12369 15.7293 4.12369H13.3043L12.1266 10.382H14.2015C14.4844 10.382 14.6834 10.6519 14.6834 10.9433C14.6834 11.2347 14.4844 11.5046 14.2015 11.5046H11.5279C11.3735 11.5046 11.2341 11.4199 11.1458 11.2864C11.0579 11.1544 11.0263 10.9837 11.0568 10.8232L11.0568 10.8233L11.1551 10.8418L11.0569 10.8231L19.2668 7.26048ZM19.2668 7.26048V7.25284C19.2668 4.92711 17.6965 3.00107 15.7293 3.00107H12.9166C12.6774 3.00107 12.4917 3.19716 12.4456 3.4424M19.2668 7.26048L12.4456 3.44242M12.4456 3.44242L12.5438 3.46089L12.4456 3.4424M12.4456 3.44242C12.4456 3.44241 12.4456 3.44241 12.4456 3.4424M12.4456 3.44242L12.4456 3.4424M12.0061 10.482H12.1078L12.0249 10.382L12.0061 10.482Z" fill="black" stroke="black" stroke-width="0.2"/>
<path d="M13.7198 10.9432C13.7198 12.2523 14.6049 13.3498 15.7296 13.3498C16.8542 13.3498 17.7393 12.2523 17.7393 10.9432C17.7393 9.63421 16.8542 8.53672 15.7296 8.53672C14.6049 8.53672 13.7198 9.63421 13.7198 10.9432ZM14.6837 10.9432C14.6837 10.217 15.1699 9.65933 15.7296 9.65933C16.2892 9.65933 16.7754 10.217 16.7754 10.9432C16.7754 11.6695 16.2892 12.2272 15.7296 12.2272C15.1699 12.2272 14.6837 11.6695 14.6837 10.9432Z" fill="black" stroke="black" stroke-width="0.2"/>
<path d="M5.31699 10.9432C5.31699 12.2523 6.20203 13.3498 7.32671 13.3498C8.4514 13.3498 9.33644 12.2523 9.33644 10.9432C9.33644 9.63421 8.4514 8.53672 7.32671 8.53672C6.20203 8.53672 5.31699 9.63421 5.31699 10.9432ZM6.28088 10.9432C6.28088 10.217 6.76705 9.65933 7.32671 9.65933C7.88638 9.65933 8.37255 10.217 8.37255 10.9432C8.37255 11.6695 7.88638 12.2272 7.32671 12.2272C6.76705 12.2272 6.28088 11.6695 6.28088 10.9432Z" fill="black" stroke="black" stroke-width="0.2"/>
<path d="M6.16683 3.76659H8.8335C9.09239 3.76659 9.26683 3.51317 9.26683 3.24992C9.26683 2.98667 9.09239 2.73325 8.8335 2.73325H6.16683C5.90793 2.73325 5.7335 2.98667 5.7335 3.24992C5.7335 3.51317 5.90793 3.76659 6.16683 3.76659Z" fill="black" stroke="black" stroke-width="0.2"/>
<path d="M3.61127 6.26659H6.38905C6.50959 6.26659 6.60647 6.19323 6.66865 6.09997C6.7313 6.00599 6.76683 5.88193 6.76683 5.74992C6.76683 5.61791 6.7313 5.49384 6.66865 5.39987C6.60647 5.30661 6.50959 5.23325 6.38905 5.23325H3.61127C3.49074 5.23325 3.39385 5.30661 3.33168 5.39987C3.26903 5.49384 3.2335 5.61791 3.2335 5.74992C3.2335 5.88193 3.26903 6.00599 3.33168 6.09997C3.39385 6.19323 3.49074 6.26659 3.61127 6.26659Z" fill="black" stroke="black" stroke-width="0.2"/>
<path d="M1.13112 8.76659H4.70254C4.8254 8.76659 4.92719 8.69663 4.99433 8.60263C5.06163 8.50841 5.10016 8.38338 5.10016 8.24992C5.10016 8.11646 5.06163 7.99143 4.99433 7.89721C4.92719 7.8032 4.8254 7.73325 4.70254 7.73325H1.13112C1.00826 7.73325 0.906473 7.8032 0.839325 7.89721C0.772028 7.99143 0.733496 8.11646 0.733496 8.24992C0.733496 8.38338 0.772028 8.50841 0.839325 8.60263C0.906473 8.69663 1.00826 8.76659 1.13112 8.76659Z" fill="black" stroke="black" stroke-width="0.2"/>
<path d="M11.5282 11.5046H8.8546C8.5717 11.5046 8.37266 11.2347 8.37266 10.9433C8.37266 10.652 8.5717 10.382 8.8546 10.382H11.1405L12.8384 1.35587H7.6046C7.3217 1.35587 7.12266 1.08593 7.12266 0.79456C7.12266 0.503188 7.3217 0.233252 7.6046 0.233252H13.4379C13.5923 0.233252 13.7316 0.317903 13.8199 0.451405C13.9079 0.583431 13.9395 0.754205 13.909 0.914733M11.5282 11.5046L13.8107 0.896048M11.5282 11.5046C11.7666 11.5046 11.9531 11.3087 11.9993 11.0633L11.5282 11.5046ZM13.909 0.914733L13.8107 0.896048M13.909 0.914733L13.909 0.91454L13.8107 0.896048M13.909 0.914733L11.9993 11.0633L11.901 11.0448L13.8107 0.896048" fill="black" stroke="black" stroke-width="0.2"/>
</svg>
