<svg width="25" height="24" viewBox="0 0 25 24" fill="none" xmlns="http://www.w3.org/2000/svg">
<g id="shopping-cart-03">
<path id="Icon" d="M5.90065 14H19.0364C20.0492 14 20.5556 14 20.9588 13.8112C21.3139 13.6448 21.6123 13.3777 21.8168 13.0432C22.049 12.6633 22.105 12.16 22.2168 11.1534L22.8018 5.88835C22.836 5.58088 22.8531 5.42715 22.8036 5.30816C22.7602 5.20366 22.6826 5.11697 22.5835 5.06228C22.4707 5 22.3161 5 22.0067 5H5.40065M2.90051 2H4.14895C4.41357 2 4.54589 2 4.6494 2.05032C4.74053 2.09463 4.81605 2.16557 4.86595 2.25376C4.92263 2.35394 4.93089 2.48599 4.94739 2.7501L5.85363 17.2499C5.87014 17.514 5.87839 17.6461 5.93508 17.7462C5.98498 17.8344 6.0605 17.9054 6.15162 17.9497C6.25514 18 6.38745 18 6.65207 18H19.9005M8.40051 21.5H8.41051M17.4005 21.5H17.4105M8.90051 21.5C8.90051 21.7761 8.67666 22 8.40051 22C8.12437 22 7.90051 21.7761 7.90051 21.5C7.90051 21.2239 8.12437 21 8.40051 21C8.67666 21 8.90051 21.2239 8.90051 21.5ZM17.9005 21.5C17.9005 21.7761 17.6767 22 17.4005 22C17.1244 22 16.9005 21.7761 16.9005 21.5C16.9005 21.2239 17.1244 21 17.4005 21C17.6767 21 17.9005 21.2239 17.9005 21.5Z" stroke="#F06292" stroke-linecap="round" stroke-linejoin="round"/>
</g>
</svg>
