<svg width="18" height="17" viewBox="0 0 18 17" fill="none" xmlns="http://www.w3.org/2000/svg">
<path fill-rule="evenodd" clip-rule="evenodd" d="M9.04788 14.4296C8.89712 14.3461 8.71396 14.3461 8.5632 14.4296L4.24843 16.8205C3.88322 17.0229 3.44552 16.715 3.51258 16.3029L4.34909 11.1623C4.37454 11.0059 4.32438 10.8467 4.21388 10.7332L0.650934 7.07264C0.367329 6.78126 0.531615 6.29122 0.933538 6.22966L5.8124 5.48243C5.97732 5.45718 6.11877 5.35132 6.18952 5.20023L8.35272 0.580398C8.53251 0.196437 9.07857 0.196436 9.25836 0.580398L11.4216 5.20023C11.4923 5.35132 11.6338 5.45718 11.7987 5.48243L16.6775 6.22966C17.0795 6.29122 17.2438 6.78126 16.9601 7.07264L13.3972 10.7332C13.2867 10.8467 13.2365 11.0059 13.262 11.1623L14.0985 16.3029C14.1656 16.715 13.7279 17.0229 13.3627 16.8205L9.04788 14.4296Z" fill="#FFCC00"/>
</svg>
